<svg xmlns="http://www.w3.org/2000/svg" xmlns:xlink="http://www.w3.org/1999/xlink" width="40" zoomAndPan="magnify" viewBox="0 0 30 30.000001" height="40" preserveAspectRatio="xMidYMid meet" version="1.0"><defs><clipPath id="15ed13d043"><path d="M 0.484375 0 L 29.515625 0 L 29.515625 29.03125 L 0.484375 29.03125 Z M 0.484375 0 " clip-rule="nonzero"/></clipPath><clipPath id="b7b1210a9a"><path d="M 2.605469 2.335938 L 20 2.335938 L 20 20 L 2.605469 20 Z M 2.605469 2.335938 " clip-rule="nonzero"/></clipPath><clipPath id="8cf377ff07"><path d="M 2.605469 2.335938 L 18 2.335938 L 18 19 L 2.605469 19 Z M 2.605469 2.335938 " clip-rule="nonzero"/></clipPath><clipPath id="21a4ffe7e3"><path d="M 11 8 L 27.28125 8 L 27.28125 25 L 11 25 Z M 11 8 " clip-rule="nonzero"/></clipPath><clipPath id="11b60fdf10"><path d="M 3 18 L 22 18 L 22 27.015625 L 3 27.015625 Z M 3 18 " clip-rule="nonzero"/></clipPath></defs><g clip-path="url(#15ed13d043)"><path fill="#ffffff" d="M 0.484375 0 L 29.515625 0 L 29.515625 29.03125 L 0.484375 29.03125 Z M 0.484375 0 " fill-opacity="1" fill-rule="nonzero"/><path fill="#ffffff" d="M 0.484375 0 L 29.515625 0 L 29.515625 29.03125 L 0.484375 29.03125 Z M 0.484375 0 " fill-opacity="1" fill-rule="nonzero"/></g><g clip-path="url(#b7b1210a9a)"><path fill="#f14621" d="M 19.621094 10.996094 C 19.621094 15.777344 15.8125 19.65625 11.113281 19.65625 C 6.414062 19.65625 2.605469 15.777344 2.605469 10.996094 C 2.605469 6.214844 6.414062 2.335938 11.113281 2.335938 C 15.8125 2.335938 19.621094 6.214844 19.621094 10.996094 " fill-opacity="1" fill-rule="nonzero"/></g><g clip-path="url(#8cf377ff07)"><path fill="#100f0d" d="M 11.207031 18.394531 C 11.226562 18.617188 11.414062 18.789062 11.628906 18.789062 C 11.640625 18.789062 11.65625 18.789062 11.667969 18.789062 C 11.902344 18.765625 12.074219 18.558594 12.054688 18.320312 C 11.882812 16.257812 11.046875 14.410156 9.769531 12.980469 L 11.113281 11.609375 L 12.515625 13.035156 C 12.597656 13.117188 12.707031 13.160156 12.816406 13.160156 C 12.925781 13.160156 13.035156 13.117188 13.117188 13.035156 C 13.285156 12.867188 13.285156 12.589844 13.117188 12.421875 L 11.714844 10.996094 L 13.066406 9.621094 C 13.570312 10.085938 14.128906 10.496094 14.738281 10.84375 C 14.800781 10.878906 14.875 10.898438 14.945312 10.898438 C 15.09375 10.898438 15.238281 10.816406 15.316406 10.675781 C 15.429688 10.464844 15.355469 10.203125 15.148438 10.085938 C 14.609375 9.78125 14.117188 9.417969 13.671875 9.007812 L 17.417969 5.195312 C 17.226562 4.980469 17.027344 4.777344 16.816406 4.582031 L 13.066406 8.394531 C 11.882812 7.054688 11.144531 5.339844 11.011719 3.480469 L 10.9375 2.394531 C 10.9375 2.375 10.929688 2.363281 10.925781 2.347656 C 10.644531 2.351562 10.367188 2.375 10.09375 2.40625 C 10.09375 2.421875 10.085938 2.4375 10.089844 2.457031 L 10.164062 3.542969 C 10.308594 5.613281 11.136719 7.523438 12.464844 9.007812 L 11.113281 10.382812 L 5.414062 4.582031 C 5.203125 4.777344 5.003906 4.980469 4.8125 5.195312 L 10.511719 10.996094 L 9.164062 12.367188 C 7.730469 11.039062 5.867188 10.179688 3.789062 10.03125 L 2.722656 9.953125 C 2.703125 9.953125 2.691406 9.957031 2.671875 9.957031 C 2.640625 10.238281 2.625 10.519531 2.617188 10.800781 C 2.632812 10.804688 2.648438 10.816406 2.660156 10.816406 L 3.730469 10.894531 C 5.59375 11.027344 7.269531 11.792969 8.5625 12.980469 L 4.8125 16.800781 C 5.003906 17.015625 5.203125 17.214844 5.414062 17.410156 L 9.164062 13.59375 C 10.304688 14.882812 11.050781 16.542969 11.207031 18.394531 " fill-opacity="1" fill-rule="nonzero"/></g><g clip-path="url(#21a4ffe7e3)"><path fill="#e9e8e7" d="M 12.15625 18.355469 C 12.03125 17.800781 11.964844 17.21875 11.964844 16.625 C 11.964844 12.320312 15.394531 8.832031 19.621094 8.832031 C 23.851562 8.832031 27.28125 12.320312 27.28125 16.625 C 27.28125 20.636719 24.300781 23.9375 20.472656 24.371094 " fill-opacity="1" fill-rule="nonzero"/><path fill="#1b1918" d="M 27.226562 15.734375 C 27.085938 14.472656 26.652344 13.300781 25.988281 12.296875 C 25.789062 11.988281 25.558594 11.703125 25.320312 11.429688 L 24.726562 11.429688 C 24.539062 11.429688 24.371094 11.558594 24.320312 11.742188 L 23.519531 14.59375 L 22.21875 15.269531 L 20.046875 13.796875 L 20.046875 12.085938 L 22.417969 10.398438 C 22.566406 10.292969 22.632812 10.105469 22.585938 9.929688 L 22.441406 9.382812 C 22.128906 9.257812 21.804688 9.15625 21.472656 9.070312 C 20.878906 8.917969 20.261719 8.832031 19.621094 8.832031 C 19.011719 8.832031 18.417969 8.914062 17.847656 9.050781 C 17.503906 9.132812 17.167969 9.242188 16.84375 9.367188 L 16.667969 9.90625 C 16.605469 10.089844 16.671875 10.289062 16.828125 10.398438 L 19.199219 12.085938 L 19.199219 13.796875 L 17.019531 15.273438 L 15.269531 14.558594 L 14.488281 12.566406 C 14.449219 12.46875 14.375 12.386719 14.285156 12.339844 L 13.507812 11.945312 C 13.335938 12.179688 13.175781 12.421875 13.03125 12.671875 C 12.429688 13.710938 12.058594 14.898438 11.988281 16.167969 C 11.980469 16.320312 11.964844 16.472656 11.964844 16.625 C 11.964844 16.789062 11.972656 16.953125 11.980469 17.117188 L 12.625 17.445312 C 12.6875 17.476562 12.75 17.492188 12.816406 17.492188 C 12.925781 17.492188 13.035156 17.445312 13.117188 17.363281 L 15.046875 15.398438 L 16.71875 16.082031 L 17.511719 18.90625 C 17.5625 19.09375 17.730469 19.222656 17.921875 19.222656 L 21.148438 19.222656 L 22.082031 20.175781 L 20.945312 22.492188 C 20.871094 22.644531 20.890625 22.828125 20.992188 22.957031 L 21.878906 24.074219 C 22.167969 23.984375 22.441406 23.871094 22.714844 23.746094 C 23.90625 23.210938 24.9375 22.382812 25.71875 21.339844 C 25.917969 21.074219 26.09375 20.792969 26.257812 20.503906 L 25.960938 19.894531 C 25.886719 19.75 25.738281 19.65625 25.578125 19.65625 L 22.777344 19.65625 L 21.800781 18.664062 L 22.527344 16.082031 L 23.847656 15.394531 L 26.195312 16.984375 C 26.265625 17.035156 26.347656 17.058594 26.429688 17.058594 C 26.496094 17.058594 26.558594 17.042969 26.621094 17.011719 L 27.277344 16.675781 C 27.277344 16.660156 27.28125 16.640625 27.28125 16.625 C 27.28125 16.324219 27.261719 16.027344 27.226562 15.734375 " fill-opacity="1" fill-rule="nonzero"/></g><g clip-path="url(#11b60fdf10)"><path fill="#f58022" d="M 4.277344 23.746094 L 5.644531 24.789062 C 7.539062 26.234375 9.84375 27.015625 12.207031 27.015625 L 13.425781 27.015625 C 15.789062 27.015625 18.09375 26.234375 19.988281 24.789062 L 21.355469 23.746094 C 21.78125 23.417969 21.8125 22.78125 21.417969 22.414062 L 20.207031 21.28125 C 18.1875 19.398438 15.554688 18.355469 12.816406 18.355469 C 10.078125 18.355469 7.445312 19.398438 5.425781 21.28125 L 4.214844 22.414062 C 3.820312 22.78125 3.851562 23.417969 4.277344 23.746094 " fill-opacity="1" fill-rule="nonzero"/></g><path fill="#3a1e16" d="M 16.644531 23.117188 L 8.136719 23.117188 C 7.902344 23.117188 7.710938 22.925781 7.710938 22.6875 C 7.710938 22.449219 7.902344 22.253906 8.136719 22.253906 L 16.644531 22.253906 C 16.878906 22.253906 17.070312 22.449219 17.070312 22.6875 C 17.070312 22.925781 16.878906 23.117188 16.644531 23.117188 " fill-opacity="1" fill-rule="nonzero"/><path fill="#3a1e16" d="M 8.988281 23.984375 C 8.753906 23.984375 8.5625 23.789062 8.5625 23.550781 L 8.5625 21.820312 C 8.5625 21.582031 8.753906 21.386719 8.988281 21.386719 C 9.222656 21.386719 9.414062 21.582031 9.414062 21.820312 L 9.414062 23.550781 C 9.414062 23.789062 9.222656 23.984375 8.988281 23.984375 " fill-opacity="1" fill-rule="nonzero"/><path fill="#3a1e16" d="M 10.6875 23.984375 C 10.457031 23.984375 10.265625 23.789062 10.265625 23.550781 L 10.265625 21.820312 C 10.265625 21.582031 10.457031 21.386719 10.6875 21.386719 C 10.921875 21.386719 11.113281 21.582031 11.113281 21.820312 L 11.113281 23.550781 C 11.113281 23.789062 10.921875 23.984375 10.6875 23.984375 " fill-opacity="1" fill-rule="nonzero"/><path fill="#3a1e16" d="M 12.390625 23.984375 C 12.15625 23.984375 11.964844 23.789062 11.964844 23.550781 L 11.964844 21.820312 C 11.964844 21.582031 12.15625 21.386719 12.390625 21.386719 C 12.625 21.386719 12.816406 21.582031 12.816406 21.820312 L 12.816406 23.550781 C 12.816406 23.789062 12.625 23.984375 12.390625 23.984375 " fill-opacity="1" fill-rule="nonzero"/><path fill="#3a1e16" d="M 14.09375 23.984375 C 13.859375 23.984375 13.667969 23.789062 13.667969 23.550781 L 13.667969 21.820312 C 13.667969 21.582031 13.859375 21.386719 14.09375 21.386719 C 14.328125 21.386719 14.519531 21.582031 14.519531 21.820312 L 14.519531 23.550781 C 14.519531 23.789062 14.328125 23.984375 14.09375 23.984375 " fill-opacity="1" fill-rule="nonzero"/><path fill="#3a1e16" d="M 15.792969 23.984375 C 15.558594 23.984375 15.367188 23.789062 15.367188 23.550781 L 15.367188 21.820312 C 15.367188 21.582031 15.558594 21.386719 15.792969 21.386719 C 16.027344 21.386719 16.21875 21.582031 16.21875 21.820312 L 16.21875 23.550781 C 16.21875 23.789062 16.027344 23.984375 15.792969 23.984375 " fill-opacity="1" fill-rule="nonzero"/></svg>